<svg width="44" height="44" viewBox="0 0 44 44" fill="none" xmlns="http://www.w3.org/2000/svg" xmlns:xlink="http://www.w3.org/1999/xlink">
<path d="M3.247,41.307L4.031,40.028L4.031,40.028L3.247,41.307ZM1.693,39.753L2.972,38.969L2.972,38.969L1.693,39.753ZM16.307,39.753L15.028,38.969L15.028,38.969L16.307,39.753ZM14.753,41.307L13.969,40.028L13.969,40.028L14.753,41.307ZM14.753,26.693L13.969,27.972L13.969,27.972L14.753,26.693ZM16.307,28.247L15.028,29.031L15.028,29.031L16.307,28.247ZM3.247,26.693L4.031,27.972L4.031,27.972L3.247,26.693ZM1.693,28.247L2.972,29.031L2.972,29.031L1.693,28.247ZM9,40.5C7.431,40.5 6.359,40.498 5.535,40.42C4.733,40.344 4.321,40.206 4.031,40.028L2.463,42.586C3.304,43.101 4.229,43.309 5.251,43.407C6.25,43.502 7.489,43.5 9,43.5L9,40.5ZM-0.5,34C-0.5,35.511 -0.502,36.75 -0.407,37.749C-0.309,38.771 -0.101,39.696 0.414,40.537L2.972,38.969C2.794,38.679 2.656,38.267 2.58,37.465C2.502,36.641 2.5,35.569 2.5,34L-0.5,34ZM4.031,40.028C3.599,39.763 3.237,39.401 2.972,38.969L0.414,40.537C0.926,41.372 1.628,42.074 2.463,42.586L4.031,40.028ZM15.5,34C15.5,35.569 15.498,36.641 15.42,37.465C15.344,38.267 15.206,38.679 15.028,38.969L17.586,40.537C18.101,39.696 18.309,38.771 18.407,37.749C18.502,36.75 18.5,35.511 18.5,34L15.5,34ZM9,43.5C10.511,43.5 11.75,43.502 12.749,43.407C13.771,43.309 14.696,43.101 15.537,42.586L13.969,40.028C13.679,40.206 13.267,40.344 12.465,40.42C11.641,40.498 10.569,40.5 9,40.5L9,43.5ZM15.028,38.969C14.763,39.401 14.401,39.763 13.969,40.028L15.537,42.586C16.372,42.074 17.074,41.372 17.586,40.537L15.028,38.969ZM9,27.5C10.569,27.5 11.641,27.502 12.465,27.58C13.267,27.656 13.679,27.794 13.969,27.972L15.537,25.414C14.696,24.899 13.771,24.691 12.749,24.593C11.75,24.498 10.511,24.5 9,24.5L9,27.5ZM18.5,34C18.5,32.489 18.502,31.25 18.407,30.251C18.309,29.229 18.101,28.304 17.586,27.463L15.028,29.031C15.206,29.321 15.344,29.733 15.42,30.535C15.498,31.359 15.5,32.431 15.5,34L18.5,34ZM13.969,27.972C14.401,28.237 14.763,28.599 15.028,29.031L17.586,27.463C17.074,26.628 16.372,25.926 15.537,25.414L13.969,27.972ZM9,24.5C7.489,24.5 6.25,24.498 5.251,24.593C4.229,24.691 3.304,24.899 2.463,25.414L4.031,27.972C4.321,27.794 4.733,27.656 5.535,27.58C6.359,27.502 7.431,27.5 9,27.5L9,24.5ZM2.5,34C2.5,32.431 2.502,31.359 2.58,30.535C2.656,29.733 2.794,29.321 2.972,29.031L0.414,27.463C-0.101,28.304 -0.309,29.229 -0.407,30.251C-0.502,31.25 -0.5,32.489 -0.5,34L2.5,34ZM2.463,25.414C1.628,25.926 0.926,26.628 0.414,27.463L2.972,29.031C3.237,28.599 3.599,28.237 4.031,27.972L2.463,25.414Z" fill="#141B34"/>
<path d="M27.247,41.307L28.031,40.028L28.031,40.028L27.247,41.307ZM25.693,39.753L26.972,38.969L26.972,38.969L25.693,39.753ZM40.307,39.753L39.028,38.969L39.028,38.969L40.307,39.753ZM38.753,41.307L37.969,40.028L37.969,40.028L38.753,41.307ZM38.753,26.693L37.969,27.972L37.969,27.972L38.753,26.693ZM40.307,28.247L39.028,29.031L39.028,29.031L40.307,28.247ZM27.247,26.693L28.031,27.972L28.031,27.972L27.247,26.693ZM25.693,28.247L26.972,29.031L26.972,29.031L25.693,28.247ZM33,40.5C31.431,40.5 30.359,40.498 29.535,40.42C28.733,40.344 28.321,40.206 28.031,40.028L26.463,42.586C27.304,43.101 28.229,43.309 29.251,43.407C30.25,43.502 31.489,43.5 33,43.5L33,40.5ZM23.5,34C23.5,35.511 23.498,36.75 23.593,37.749C23.691,38.771 23.899,39.696 24.414,40.537L26.972,38.969C26.794,38.679 26.656,38.267 26.58,37.465C26.502,36.641 26.5,35.569 26.5,34L23.5,34ZM28.031,40.028C27.599,39.763 27.237,39.401 26.972,38.969L24.414,40.537C24.926,41.372 25.628,42.074 26.463,42.586L28.031,40.028ZM39.5,34C39.5,35.569 39.498,36.641 39.42,37.465C39.344,38.267 39.206,38.679 39.028,38.969L41.586,40.537C42.101,39.696 42.309,38.771 42.407,37.749C42.502,36.75 42.5,35.511 42.5,34L39.5,34ZM33,43.5C34.511,43.5 35.75,43.502 36.749,43.407C37.771,43.309 38.696,43.101 39.537,42.586L37.969,40.028C37.679,40.206 37.267,40.344 36.465,40.42C35.641,40.498 34.569,40.5 33,40.5L33,43.5ZM39.028,38.969C38.763,39.401 38.401,39.763 37.969,40.028L39.537,42.586C40.372,42.074 41.074,41.372 41.586,40.537L39.028,38.969ZM33,27.5C34.569,27.5 35.641,27.502 36.465,27.58C37.267,27.656 37.679,27.794 37.969,27.972L39.537,25.414C38.696,24.899 37.771,24.691 36.749,24.593C35.75,24.498 34.511,24.5 33,24.5L33,27.5ZM42.5,34C42.5,32.489 42.502,31.25 42.407,30.251C42.309,29.229 42.101,28.304 41.586,27.463L39.028,29.031C39.206,29.321 39.344,29.733 39.42,30.535C39.498,31.359 39.5,32.431 39.5,34L42.5,34ZM37.969,27.972C38.401,28.237 38.763,28.599 39.028,29.031L41.586,27.463C41.074,26.628 40.372,25.926 39.537,25.414L37.969,27.972ZM33,24.5C31.489,24.5 30.25,24.498 29.251,24.593C28.229,24.691 27.304,24.899 26.463,25.414L28.031,27.972C28.321,27.794 28.733,27.656 29.535,27.58C30.359,27.502 31.431,27.5 33,27.5L33,24.5ZM26.5,34C26.5,32.431 26.502,31.359 26.58,30.535C26.656,29.733 26.794,29.321 26.972,29.031L24.414,27.463C23.899,28.304 23.691,29.229 23.593,30.251C23.498,31.25 23.5,32.489 23.5,34L26.5,34ZM26.463,25.414C25.628,25.926 24.926,26.628 24.414,27.463L26.972,29.031C27.237,28.599 27.599,28.237 28.031,27.972L26.463,25.414Z" fill="#141B34"/>
<path d="M3.247,17.307L4.031,16.028L4.031,16.028L3.247,17.307ZM1.693,15.753L2.972,14.969L2.972,14.969L1.693,15.753ZM16.307,15.753L15.028,14.969L15.028,14.969L16.307,15.753ZM14.753,17.307L13.969,16.028L13.969,16.028L14.753,17.307ZM14.753,2.693L13.969,3.972L13.969,3.972L14.753,2.693ZM16.307,4.247L15.028,5.031L15.028,5.031L16.307,4.247ZM3.247,2.693L4.031,3.972L4.031,3.972L3.247,2.693ZM1.693,4.247L2.972,5.031L2.972,5.031L1.693,4.247ZM9,16.5C7.431,16.5 6.359,16.498 5.535,16.42C4.733,16.344 4.321,16.206 4.031,16.028L2.463,18.586C3.304,19.101 4.229,19.309 5.251,19.407C6.25,19.502 7.489,19.5 9,19.5L9,16.5ZM-0.5,10C-0.5,11.511 -0.502,12.75 -0.407,13.749C-0.309,14.771 -0.101,15.696 0.414,16.537L2.972,14.969C2.794,14.679 2.656,14.267 2.58,13.465C2.502,12.641 2.5,11.569 2.5,10L-0.5,10ZM4.031,16.028C3.599,15.763 3.237,15.401 2.972,14.969L0.414,16.537C0.926,17.372 1.628,18.074 2.463,18.586L4.031,16.028ZM15.5,10C15.5,11.569 15.498,12.641 15.42,13.465C15.344,14.267 15.206,14.679 15.028,14.969L17.586,16.537C18.101,15.696 18.309,14.771 18.407,13.749C18.502,12.75 18.5,11.511 18.5,10L15.5,10ZM9,19.5C10.511,19.5 11.75,19.502 12.749,19.407C13.771,19.309 14.696,19.101 15.537,18.586L13.969,16.028C13.679,16.206 13.267,16.344 12.465,16.42C11.641,16.498 10.569,16.5 9,16.5L9,19.5ZM15.028,14.969C14.763,15.401 14.401,15.763 13.969,16.028L15.537,18.586C16.372,18.074 17.074,17.372 17.586,16.537L15.028,14.969ZM9,3.5C10.569,3.5 11.641,3.502 12.465,3.58C13.267,3.656 13.679,3.794 13.969,3.972L15.537,1.414C14.696,0.899 13.771,0.691 12.749,0.593C11.75,0.498 10.511,0.5 9,0.5L9,3.5ZM18.5,10C18.5,8.489 18.502,7.25 18.407,6.251C18.309,5.229 18.101,4.304 17.586,3.463L15.028,5.031C15.206,5.321 15.344,5.733 15.42,6.535C15.498,7.359 15.5,8.431 15.5,10L18.5,10ZM13.969,3.972C14.401,4.237 14.763,4.599 15.028,5.031L17.586,3.463C17.074,2.628 16.372,1.926 15.537,1.414L13.969,3.972ZM9,0.5C7.489,0.5 6.25,0.498 5.251,0.593C4.229,0.691 3.304,0.899 2.463,1.414L4.031,3.972C4.321,3.794 4.733,3.656 5.535,3.58C6.359,3.502 7.431,3.5 9,3.5L9,0.5ZM2.5,10C2.5,8.431 2.502,7.359 2.58,6.535C2.656,5.733 2.794,5.321 2.972,5.031L0.414,3.463C-0.101,4.304 -0.309,5.229 -0.407,6.251C-0.502,7.25 -0.5,8.489 -0.5,10L2.5,10ZM2.463,1.414C1.628,1.926 0.926,2.628 0.414,3.463L2.972,5.031C3.237,4.599 3.599,4.237 4.031,3.972L2.463,1.414Z" fill="#141B34"/>
<path d="M27.247,17.307L28.031,16.028L28.031,16.028L27.247,17.307ZM25.693,15.753L26.972,14.969L26.972,14.969L25.693,15.753ZM40.307,15.753L39.028,14.969L39.028,14.969L40.307,15.753ZM38.753,17.307L37.969,16.028L37.969,16.028L38.753,17.307ZM38.753,2.693L37.969,3.972L37.969,3.972L38.753,2.693ZM40.307,4.247L39.028,5.031L39.028,5.031L40.307,4.247ZM27.247,2.693L28.031,3.972L28.031,3.972L27.247,2.693ZM25.693,4.247L26.972,5.031L26.972,5.031L25.693,4.247ZM33,16.5C31.431,16.5 30.359,16.498 29.535,16.42C28.733,16.344 28.321,16.206 28.031,16.028L26.463,18.586C27.304,19.101 28.229,19.309 29.251,19.407C30.25,19.502 31.489,19.5 33,19.5L33,16.5ZM23.5,10C23.5,11.511 23.498,12.75 23.593,13.749C23.691,14.771 23.899,15.696 24.414,16.537L26.972,14.969C26.794,14.679 26.656,14.267 26.58,13.465C26.502,12.641 26.5,11.569 26.5,10L23.5,10ZM28.031,16.028C27.599,15.763 27.237,15.401 26.972,14.969L24.414,16.537C24.926,17.372 25.628,18.074 26.463,18.586L28.031,16.028ZM39.5,10C39.5,11.569 39.498,12.641 39.42,13.465C39.344,14.267 39.206,14.679 39.028,14.969L41.586,16.537C42.101,15.696 42.309,14.771 42.407,13.749C42.502,12.75 42.5,11.511 42.5,10L39.5,10ZM33,19.5C34.511,19.5 35.75,19.502 36.749,19.407C37.771,19.309 38.696,19.101 39.537,18.586L37.969,16.028C37.679,16.206 37.267,16.344 36.465,16.42C35.641,16.498 34.569,16.5 33,16.5L33,19.5ZM39.028,14.969C38.763,15.401 38.401,15.763 37.969,16.028L39.537,18.586C40.372,18.074 41.074,17.372 41.586,16.537L39.028,14.969ZM33,3.5C34.569,3.5 35.641,3.502 36.465,3.58C37.267,3.656 37.679,3.794 37.969,3.972L39.537,1.414C38.696,0.899 37.771,0.691 36.749,0.593C35.75,0.498 34.511,0.5 33,0.5L33,3.5ZM42.5,10C42.5,8.489 42.502,7.25 42.407,6.251C42.309,5.229 42.101,4.304 41.586,3.463L39.028,5.031C39.206,5.321 39.344,5.733 39.42,6.535C39.498,7.359 39.5,8.431 39.5,10L42.5,10ZM37.969,3.972C38.401,4.237 38.763,4.599 39.028,5.031L41.586,3.463C41.074,2.628 40.372,1.926 39.537,1.414L37.969,3.972ZM33,0.5C31.489,0.5 30.25,0.498 29.251,0.593C28.229,0.691 27.304,0.899 26.463,1.414L28.031,3.972C28.321,3.794 28.733,3.656 29.535,3.58C30.359,3.502 31.431,3.5 33,3.5L33,0.5ZM26.5,10C26.5,8.431 26.502,7.359 26.58,6.535C26.656,5.733 26.794,5.321 26.972,5.031L24.414,3.463C23.899,4.304 23.691,5.229 23.593,6.251C23.498,7.25 23.5,8.489 23.5,10L26.5,10ZM26.463,1.414C25.628,1.926 24.926,2.628 24.414,3.463L26.972,5.031C27.237,4.599 27.599,4.237 28.031,3.972L26.463,1.414Z" fill="#141B34"/>
</svg>
