<svg width="44" height="44" viewBox="0 0 44 44" fill="none" xmlns="http://www.w3.org/2000/svg" xmlns:xlink="http://www.w3.org/1999/xlink">
<path d="M15,28L13.507,27.853C13.463,28.3 13.622,28.743 13.939,29.061C14.257,29.378 14.7,29.537 15.147,29.493L15,28ZM20.849,14.389L21.909,15.45L20.849,14.389ZM15.156,26.424L13.663,26.276L13.663,26.276L15.156,26.424ZM28.611,22.151L29.671,23.212L29.671,23.212L28.611,22.151ZM16.576,27.844L16.429,26.352L16.429,26.352L16.576,27.844ZM40.697,6.758L39.319,7.353L39.319,7.353L40.697,6.758ZM38.654,12.108L37.593,11.048L37.593,11.048L38.654,12.108ZM40.697,9.696L39.319,9.101L39.319,9.101L40.697,9.696ZM36.242,2.303L35.647,3.681L35.647,3.681L36.242,2.303ZM30.892,4.346L29.831,3.285L30.892,4.346ZM33.304,2.303L33.899,3.681L33.899,3.681L33.304,2.303ZM37.593,11.048L27.55,21.091L29.671,23.212L39.715,13.169L37.593,11.048ZM21.909,15.45L31.952,5.407L29.831,3.285L19.788,13.329L21.909,15.45ZM16.429,26.352L14.853,26.507L15.147,29.493L16.724,29.337L16.429,26.352ZM16.493,28.147L16.648,26.571L13.663,26.276L13.507,27.853L16.493,28.147ZM19.788,13.329C17.387,15.729 15.918,17.17 15.048,19.009L17.76,20.292C18.356,19.032 19.361,17.998 21.909,15.45L19.788,13.329ZM16.648,26.571C17.002,22.984 17.164,21.552 17.76,20.292L15.048,19.009C14.178,20.848 13.996,22.898 13.663,26.276L16.648,26.571ZM27.55,21.091C25.002,23.639 23.968,24.644 22.708,25.24L23.991,27.952C25.83,27.082 27.271,25.613 29.671,23.212L27.55,21.091ZM16.724,29.337C20.102,29.004 22.152,28.822 23.991,27.952L22.708,25.24C21.448,25.836 20.015,25.998 16.429,26.352L16.724,29.337ZM37.593,5.407C38.194,6.008 38.594,6.408 38.882,6.738C39.163,7.057 39.267,7.232 39.319,7.353L42.074,6.164C41.845,5.635 41.515,5.19 41.138,4.76C40.77,4.339 40.288,3.859 39.715,3.285L37.593,5.407ZM39.715,13.169C40.288,12.596 40.77,12.115 41.138,11.694C41.515,11.264 41.845,10.819 42.074,10.29L39.319,9.101C39.267,9.223 39.163,9.397 38.882,9.717C38.594,10.046 38.194,10.446 37.593,11.048L39.715,13.169ZM39.319,7.353C39.56,7.911 39.56,8.543 39.319,9.101L42.074,10.29C42.642,8.974 42.642,7.481 42.074,6.164L39.319,7.353ZM39.715,3.285C39.141,2.712 38.661,2.23 38.24,1.862C37.81,1.485 37.365,1.155 36.836,0.926L35.647,3.681C35.768,3.733 35.943,3.837 36.262,4.118C36.592,4.406 36.992,4.806 37.593,5.407L39.715,3.285ZM31.952,5.407C32.554,4.806 32.954,4.406 33.283,4.118C33.603,3.837 33.777,3.733 33.899,3.681L32.71,0.926C32.181,1.155 31.736,1.485 31.306,1.862C30.885,2.23 30.404,2.712 29.831,3.285L31.952,5.407ZM36.836,0.926C35.519,0.358 34.026,0.358 32.71,0.926L33.899,3.681C34.457,3.44 35.089,3.44 35.647,3.681L36.836,0.926Z" fill="#141B34"/>
<path d="M9,29.5C9.828,29.5 10.5,28.828 10.5,28C10.5,27.172 9.828,26.5 9,26.5L9,29.5ZM19,40.5C18.172,40.5 17.5,41.172 17.5,42C17.5,42.828 18.172,43.5 19,43.5L19,40.5ZM9,26.5L4.5,26.5L4.5,29.5L9,29.5L9,26.5ZM4.5,36.5L23.5,36.5L23.5,33.5L4.5,33.5L4.5,36.5ZM23.5,40.5L19,40.5L19,43.5L23.5,43.5L23.5,40.5ZM25.5,38.5C25.5,39.605 24.605,40.5 23.5,40.5L23.5,43.5C26.261,43.5 28.5,41.261 28.5,38.5L25.5,38.5ZM23.5,36.5C24.605,36.5 25.5,37.395 25.5,38.5L28.5,38.5C28.5,35.739 26.261,33.5 23.5,33.5L23.5,36.5ZM-0.5,31.5C-0.5,34.261 1.739,36.5 4.5,36.5L4.5,33.5C3.395,33.5 2.5,32.605 2.5,31.5L-0.5,31.5ZM4.5,26.5C1.739,26.5 -0.5,28.739 -0.5,31.5L2.5,31.5C2.5,30.395 3.395,29.5 4.5,29.5L4.5,26.5Z" fill="#141B34"/>
</svg>
