<svg width="42" height="42" viewBox="0 0 42 42" fill="none" xmlns="http://www.w3.org/2000/svg" xmlns:xlink="http://www.w3.org/1999/xlink">
<circle cx="12" cy="11" r="3" stroke="#141B34" stroke-width="1.5" stroke-miterlimit="3.999327" stroke-linecap="round" stroke-linejoin="round"/>
<path d="M21,37.5C16.479,37.5 13.24,37.497 10.776,37.166C8.355,36.84 6.909,36.223 5.843,35.157L3.722,37.278C5.438,38.995 7.623,39.769 10.376,40.139C13.086,40.503 16.564,40.5 21,40.5L21,37.5ZM0.5,20C0.5,24.436 0.497,27.914 0.861,30.624C1.231,33.377 2.005,35.562 3.722,37.278L5.843,35.157C4.777,34.091 4.16,32.645 3.834,30.224C3.503,27.76 3.5,24.521 3.5,20L0.5,20ZM38.5,20C38.5,24.521 38.497,27.76 38.166,30.224C37.84,32.645 37.223,34.091 36.157,35.157L38.278,37.278C39.995,35.562 40.769,33.377 41.139,30.624C41.503,27.914 41.5,24.436 41.5,20L38.5,20ZM21,40.5C25.436,40.5 28.914,40.503 31.624,40.139C34.377,39.769 36.562,38.995 38.278,37.278L36.157,35.157C35.091,36.223 33.645,36.84 31.224,37.166C28.76,37.497 25.521,37.5 21,37.5L21,40.5ZM21,2.5C25.521,2.5 28.76,2.503 31.224,2.834C33.645,3.16 35.091,3.777 36.157,4.843L38.278,2.722C36.562,1.005 34.377,0.231 31.624,-0.139C28.914,-0.503 25.436,-0.5 21,-0.5L21,2.5ZM41.5,20C41.5,15.564 41.503,12.086 41.139,9.376C40.769,6.623 39.995,4.438 38.278,2.722L36.157,4.843C37.223,5.909 37.84,7.355 38.166,9.776C38.497,12.24 38.5,15.479 38.5,20L41.5,20ZM21,-0.5C16.564,-0.5 13.086,-0.503 10.376,-0.139C7.623,0.231 5.438,1.005 3.722,2.722L5.843,4.843C6.909,3.777 8.355,3.16 10.776,2.834C13.24,2.503 16.479,2.5 21,2.5L21,-0.5ZM3.5,20C3.5,15.479 3.503,12.24 3.834,9.776C4.16,7.355 4.777,5.909 5.843,4.843L3.722,2.722C2.005,4.438 1.231,6.623 0.861,9.376C0.497,12.086 0.5,15.564 0.5,20L3.5,20Z" fill="#141B34"/>
<path d="M40.808,21.824C36.98,19.356 33.354,18.355 29.904,18.517C26.468,18.678 23.354,19.986 20.524,21.884C14.947,25.623 10.135,31.916 5.85,37.037L8.15,38.963C12.61,33.634 17.072,27.81 22.195,24.376C24.715,22.686 27.306,21.642 30.045,21.514C32.769,21.385 35.786,22.156 39.182,24.345L40.808,21.824Z" fill="#141B34"/>
</svg>
