<svg width="950" height="826" viewBox="0 0 950 826" fill="none" xmlns="http://www.w3.org/2000/svg" xmlns:xlink="http://www.w3.org/1999/xlink">
<g style="isolation:isolate">
<path d="M841.59,213.596C863.96,210.942 881.298,192.114 881.298,169.282C881.298,144.631 861.086,124.647 836.152,124.647C833.096,124.647 830.11,124.947 827.224,125.52C822.756,96.868 797.904,74.94 767.916,74.94C751.934,74.94 737.41,81.169 726.654,91.325C719.64,86.737 711.258,84.069 702.252,84.069C677.6,84.069 657.618,104.053 657.618,128.704C657.618,136.65 659.694,144.11 663.332,150.573C648.39,153.386 637.094,166.37 637.094,181.962C637.094,199.61 651.564,213.916 669.416,213.916C669.894,213.916 670.372,213.906 670.846,213.886L670.846,213.918L841.59,213.918L841.59,213.596Z" clip-rule="evenodd" fill-rule="evenodd" fill="#FFFFFF"/>
<path d="M638.688,171.002C642.91,183.793 655.074,193.034 669.42,193.034C669.9,193.034 670.378,193.024 670.852,193.003L670.852,193.034L836.072,193.034L836.156,193.035L836.24,193.034L841.596,193.034L841.596,192.714C860.618,190.456 876.002,176.502 880.18,158.336C880.912,161.526 881.298,164.845 881.298,168.254C881.298,191.085 863.96,209.912 841.59,212.568L841.59,212.888L836.328,212.888L836.152,212.888L835.974,212.888L670.848,212.888L670.848,212.858C670.374,212.878 669.896,212.888 669.418,212.888C651.566,212.888 637.096,198.582 637.096,180.934C637.096,177.467 637.654,174.128 638.688,171.002Z" clip-rule="evenodd" fill-rule="evenodd" fill="#000000" fill-opacity="0.05"/>
<path d="M841.59,213.596L840.09,213.596C840.09,212.836 840.658,212.196 841.414,212.106L841.59,213.596ZM827.224,125.52L827.516,126.991C827.116,127.07 826.7,126.983 826.364,126.749C826.03,126.515 825.806,126.154 825.742,125.751L827.224,125.52ZM726.654,91.325L727.682,92.415C727.178,92.892 726.412,92.96 725.832,92.58L726.654,91.325ZM663.332,150.573L664.64,149.837C664.876,150.258 664.896,150.768 664.692,151.206C664.488,151.644 664.086,151.957 663.61,152.047L663.332,150.573ZM670.846,213.886L670.782,212.388C671.19,212.37 671.588,212.52 671.884,212.802C672.18,213.086 672.346,213.478 672.346,213.886L670.846,213.886ZM670.846,213.918L670.846,215.418C670.018,215.418 669.346,214.746 669.346,213.918L670.846,213.918ZM841.59,213.918L843.09,213.918C843.09,214.746 842.418,215.418 841.59,215.418L841.59,213.918ZM841.414,212.106C863.05,209.538 879.798,191.331 879.798,169.282L882.798,169.282C882.798,192.896 864.868,212.344 841.766,215.086L841.414,212.106ZM879.798,169.282C879.798,145.475 860.274,126.147 836.152,126.147L836.152,123.147C861.898,123.147 882.798,143.786 882.798,169.282L879.798,169.282ZM836.152,126.147C833.194,126.147 830.306,126.438 827.516,126.991L826.932,124.048C829.914,123.457 832.998,123.147 836.152,123.147L836.152,126.147ZM825.742,125.751C821.386,97.821 797.156,76.44 767.916,76.44L767.916,73.44C798.652,73.44 824.124,95.914 828.706,125.288L825.742,125.751ZM767.916,76.44C752.33,76.44 738.172,82.513 727.682,92.415L725.624,90.234C736.648,79.826 751.536,73.44 767.916,73.44L767.916,76.44ZM725.832,92.58C719.056,88.147 710.956,85.569 702.252,85.569L702.252,82.569C711.558,82.569 720.224,85.327 727.474,90.069L725.832,92.58ZM702.252,85.569C678.43,85.569 659.118,104.882 659.118,128.704L656.118,128.704C656.118,103.225 676.772,82.569 702.252,82.569L702.252,85.569ZM659.118,128.704C659.118,136.385 661.124,143.593 664.64,149.837L662.026,151.309C658.264,144.627 656.118,136.914 656.118,128.704L659.118,128.704ZM663.61,152.047C649.352,154.731 638.594,167.117 638.594,181.962L635.594,181.962C635.594,165.623 647.428,152.041 663.054,149.099L663.61,152.047ZM638.594,181.962C638.594,198.766 652.378,212.416 669.416,212.416L669.416,215.416C650.752,215.416 635.594,200.454 635.594,181.962L638.594,181.962ZM669.416,212.416C669.874,212.416 670.33,212.406 670.782,212.388L670.912,215.384C670.416,215.406 669.916,215.416 669.416,215.416L669.416,212.416ZM672.346,213.886L672.346,213.918L669.346,213.918L669.346,213.886L672.346,213.886ZM670.846,212.418L841.59,212.418L841.59,215.418L670.846,215.418L670.846,212.418ZM840.09,213.918L840.09,213.596L843.09,213.596L843.09,213.918L840.09,213.918Z" fill="#000000"/>
<path d="M476.844,823.778C677.01,823.778 839.276,661.478 839.276,461.27C839.276,261.062 677.01,98.76 476.844,98.76C276.676,98.76 114.41,261.062 114.41,461.27C114.41,661.478 276.676,823.778 476.844,823.778Z" fill="#FECBFF"/>
<path d="M476.844,825.278C677.84,825.278 840.776,662.306 840.776,461.27L837.776,461.27C837.776,660.65 676.182,822.278 476.844,822.278L476.844,825.278ZM840.776,461.27C840.776,260.234 677.84,97.26 476.844,97.26L476.844,100.26C676.182,100.26 837.776,261.89 837.776,461.27L840.776,461.27ZM476.844,97.26C275.847,97.26 112.91,260.234 112.91,461.27L115.91,461.27C115.91,261.89 277.505,100.26 476.844,100.26L476.844,97.26ZM112.91,461.27C112.91,662.306 275.847,825.278 476.844,825.278L476.844,822.278C277.505,822.278 115.91,660.65 115.91,461.27L112.91,461.27Z" fill="#000000"/>
<path d="M876.63,68.222C882.084,67.362 885.808,62.242 884.948,56.786C884.086,51.331 878.968,47.606 873.514,48.467C868.06,49.327 864.336,54.447 865.196,59.903C866.056,65.358 871.176,69.083 876.63,68.222Z" fill="#FC63FF" stroke="#000000" stroke-width="1.5" stroke-miterlimit="3.999327" stroke-linejoin="round"/>
<path d="M44.309,520.538C49.763,519.676 53.487,514.556 52.627,509.102C51.766,503.646 46.647,499.92 41.193,500.782C35.738,501.642 32.014,506.762 32.875,512.218C33.735,517.674 38.854,521.398 44.309,520.538Z" fill="#FFE81A" stroke="#000000" stroke-width="1.5" stroke-miterlimit="3.999327" stroke-linejoin="round"/>
<path d="M503.09,29.778C510.82,29.778 517.088,23.51 517.088,15.778C517.088,8.046 510.82,1.778 503.09,1.778C495.36,1.778 489.094,8.046 489.094,15.778C489.094,23.51 495.36,29.778 503.09,29.778Z" fill="#FFE81A" stroke="#000000" stroke-width="1.5" stroke-miterlimit="3.999327" stroke-linejoin="round"/>
<path d="M933.816,398.08C941.548,398.08 947.814,391.812 947.814,384.08C947.814,376.348 941.548,370.08 933.816,370.08C926.086,370.08 919.82,376.348 919.82,384.08C919.82,391.812 926.086,398.08 933.816,398.08Z" fill="#FFE81A" stroke="#000000" stroke-width="1.5" stroke-miterlimit="3.999327" stroke-linejoin="round"/>
<path d="M16.183,269.07C23.913,269.07 30.18,262.802 30.18,255.07C30.18,247.338 23.913,241.07 16.183,241.07C8.452,241.07 2.186,247.338 2.186,255.07C2.186,262.802 8.452,269.07 16.183,269.07Z" fill="#FC63FF" stroke="#000000" stroke-width="1.5" stroke-miterlimit="3.999327" stroke-linejoin="round"/>
<path d="M274.08,796.282C303.196,792.828 325.764,768.324 325.764,738.608C325.764,706.524 299.458,680.516 267.006,680.516C263.03,680.516 259.146,680.908 255.39,681.652C249.574,644.362 217.23,615.824 178.202,615.824C157.4,615.824 138.497,623.932 124.497,637.15C115.37,631.178 104.46,627.708 92.739,627.708C60.657,627.708 34.649,653.716 34.649,685.798C34.649,696.138 37.351,705.848 42.087,714.258C22.641,717.922 7.942,734.82 7.942,755.11C7.942,778.08 26.775,796.698 50.007,796.698C50.629,796.698 51.248,796.686 51.863,796.66L51.863,796.698L274.08,796.698L274.08,796.282Z" clip-rule="evenodd" fill-rule="evenodd" fill="#FFFFFF"/>
<path d="M10.017,740.864C15.518,757.502 31.343,769.52 50.008,769.52C50.629,769.52 51.248,769.506 51.863,769.48L51.863,769.52L274.082,769.52L274.082,769.102C298.852,766.164 318.884,747.988 324.31,724.328C325.266,728.49 325.772,732.82 325.772,737.268C325.772,766.986 303.204,791.49 274.088,794.944L274.088,795.36L267.252,795.36L267.016,795.36L266.78,795.36L51.869,795.36L51.869,795.32C51.255,795.346 50.638,795.358 50.017,795.358C26.785,795.358 7.952,776.74 7.952,753.77C7.952,749.266 8.677,744.928 10.017,740.864Z" clip-rule="evenodd" fill-rule="evenodd" fill="#000000" fill-opacity="0.05"/>
<path d="M274.08,796.282L272.58,796.282C272.58,795.522 273.15,794.882 273.904,794.792L274.08,796.282ZM255.39,681.652L255.682,683.124C255.282,683.202 254.866,683.116 254.53,682.882C254.196,682.648 253.97,682.286 253.908,681.882L255.39,681.652ZM124.497,637.15L125.527,638.24C125.022,638.716 124.257,638.784 123.676,638.404L124.497,637.15ZM42.087,714.258L43.394,713.522C43.631,713.944 43.651,714.454 43.447,714.892C43.242,715.33 42.84,715.644 42.364,715.732L42.087,714.258ZM51.863,796.66L51.799,795.16C52.207,795.142 52.606,795.292 52.901,795.576C53.196,795.858 53.363,796.25 53.363,796.66L51.863,796.66ZM51.863,796.698L51.863,798.198C51.035,798.198 50.363,797.528 50.363,796.698L51.863,796.698ZM274.08,796.698L275.58,796.698C275.58,797.528 274.91,798.198 274.08,798.198L274.08,796.698ZM273.904,794.792C302.286,791.426 324.264,767.542 324.264,738.608L327.264,738.608C327.264,769.106 304.104,794.23 274.258,797.772L273.904,794.792ZM324.264,738.608C324.264,707.37 298.644,682.016 267.006,682.016L267.006,679.016C300.27,679.016 327.264,705.68 327.264,738.608L324.264,738.608ZM267.006,682.016C263.128,682.016 259.342,682.398 255.682,683.124L255.098,680.18C258.95,679.416 262.932,679.016 267.006,679.016L267.006,682.016ZM253.908,681.882C248.204,645.316 216.482,617.324 178.202,617.324L178.202,614.324C217.978,614.324 250.944,643.408 256.872,681.42L253.908,681.882ZM178.202,617.324C157.797,617.324 139.259,625.274 125.527,638.24L123.467,636.06C137.735,622.588 157.002,614.324 178.202,614.324L178.202,617.324ZM123.676,638.404C114.785,632.588 104.159,629.208 92.739,629.208L92.739,626.208C104.76,626.208 115.954,629.768 125.318,635.894L123.676,638.404ZM92.739,629.208C61.485,629.208 36.149,654.544 36.149,685.798L33.149,685.798C33.149,652.888 59.828,626.208 92.739,626.208L92.739,629.208ZM36.149,685.798C36.149,695.874 38.781,705.33 43.394,713.522L40.78,714.994C35.921,706.366 33.149,696.404 33.149,685.798L36.149,685.798ZM42.364,715.732C23.603,719.266 9.442,735.566 9.442,755.11L6.442,755.11C6.442,734.072 21.68,716.576 41.809,712.784L42.364,715.732ZM9.442,755.11C9.442,777.234 27.587,795.198 50.007,795.198L50.007,798.198C25.963,798.198 6.442,778.924 6.442,755.11L9.442,755.11ZM50.007,795.198C50.607,795.198 51.205,795.186 51.799,795.16L51.928,798.158C51.291,798.186 50.65,798.198 50.007,798.198L50.007,795.198ZM53.363,796.66L53.363,796.698L50.363,796.698L50.363,796.66L53.363,796.66ZM51.863,795.198L274.08,795.198L274.08,798.198L51.863,798.198L51.863,795.198ZM272.58,796.698L272.58,796.282L275.58,796.282L275.58,796.698L272.58,796.698Z" fill="#000000"/>
<path d="M325.48,166.266C335.276,155.078 341.214,140.425 341.214,124.385C341.214,89.256 312.736,60.778 277.606,60.778C242.478,60.778 214,89.256 214,124.385C214,137.155 217.762,149.047 224.24,159.01C224.26,159.04 224.238,159.08 224.204,159.08C224.168,159.08 224.146,159.12 224.166,159.15L248.402,194.762L257,233.778L275.83,233.778C277.474,234.394 279.454,233.896 280.552,232.284L325.48,166.266ZM305.074,124.384C305.074,139.554 292.776,151.851 277.606,151.851C262.438,151.851 250.14,139.554 250.14,124.384C250.14,109.215 262.438,96.918 277.606,96.918C292.776,96.918 305.074,109.215 305.074,124.384Z" clip-rule="evenodd" fill-rule="evenodd" fill="#FC63FF"/>
<path d="M325.48,166.266L324.352,165.278C324.312,165.324 324.274,165.372 324.24,165.422L325.48,166.266ZM248.402,194.762L249.868,194.44C249.826,194.253 249.75,194.076 249.642,193.919L248.402,194.762ZM257,233.778L255.534,234.1C255.686,234.788 256.296,235.278 257,235.278L257,233.778ZM275.83,233.778L276.356,232.374C276.188,232.31 276.01,232.278 275.83,232.278L275.83,233.778ZM339.714,124.385C339.714,140.047 333.918,154.353 324.352,165.278L326.61,167.254C336.636,155.803 342.714,140.802 342.714,124.385L339.714,124.385ZM277.606,62.278C311.908,62.278 339.714,90.084 339.714,124.385L342.714,124.385C342.714,88.427 313.564,59.278 277.606,59.278L277.606,62.278ZM215.5,124.385C215.5,90.084 243.306,62.278 277.606,62.278L277.606,59.278C241.648,59.278 212.5,88.427 212.5,124.385L215.5,124.385ZM225.498,158.193C219.174,148.465 215.5,136.856 215.5,124.385L212.5,124.385C212.5,137.454 216.352,149.628 222.984,159.828L225.498,158.193ZM224.204,160.58C225.43,160.58 226.166,159.22 225.498,158.193L222.984,159.828C222.354,158.86 223.048,157.58 224.204,157.58L224.204,160.58ZM225.406,158.306C226.064,159.272 225.372,160.58 224.204,160.58L224.204,157.58C222.962,157.58 222.228,158.968 222.926,159.994L225.406,158.306ZM249.642,193.919L225.406,158.306L222.926,159.994L247.162,195.606L249.642,193.919ZM258.464,233.456L249.868,194.44L246.938,195.085L255.534,234.1L258.464,233.456ZM275.83,232.278L257,232.278L257,235.278L275.83,235.278L275.83,232.278ZM279.312,231.44C278.63,232.442 277.396,232.764 276.356,232.374L275.304,235.182C277.55,236.024 280.28,235.35 281.792,233.128L279.312,231.44ZM324.24,165.422L279.312,231.44L281.792,233.128L326.72,167.11L324.24,165.422ZM277.606,153.351C293.604,153.351 306.574,140.382 306.574,124.384L303.574,124.384C303.574,138.725 291.948,150.351 277.606,150.351L277.606,153.351ZM248.64,124.384C248.64,140.382 261.61,153.351 277.606,153.351L277.606,150.351C263.266,150.351 251.64,138.725 251.64,124.384L248.64,124.384ZM277.606,95.418C261.61,95.418 248.64,108.386 248.64,124.384L251.64,124.384C251.64,110.043 263.266,98.418 277.606,98.418L277.606,95.418ZM306.574,124.384C306.574,108.386 293.604,95.418 277.606,95.418L277.606,98.418C291.948,98.418 303.574,110.043 303.574,124.384L306.574,124.384Z" fill="#000000"/>
<path d="M321.214,124.385C321.214,140.425 315.276,155.078 305.48,166.266L260.552,232.284C258.964,234.616 255.526,234.616 253.938,232.284L204.166,159.15C204.146,159.12 204.168,159.08 204.204,159.08C204.238,159.08 204.26,159.04 204.24,159.01C197.763,149.047 194,137.155 194,124.385C194,89.256 222.478,60.778 257.606,60.778C292.736,60.778 321.214,89.256 321.214,124.385ZM257.606,151.851C272.776,151.851 285.074,139.554 285.074,124.384C285.074,109.215 272.776,96.918 257.606,96.918C242.438,96.918 230.14,109.215 230.14,124.384C230.14,139.554 242.438,151.851 257.606,151.851Z" clip-rule="evenodd" fill-rule="evenodd" fill="#FC63FF"/>
<path d="M305.48,166.266L304.352,165.278C304.312,165.324 304.274,165.372 304.24,165.422L305.48,166.266ZM306.61,167.254C316.636,155.803 322.714,140.802 322.714,124.385L319.714,124.385C319.714,140.047 313.918,154.353 304.352,165.278L306.61,167.254ZM261.792,233.128L306.72,167.11L304.24,165.422L259.312,231.44L261.792,233.128ZM202.926,159.994L252.698,233.128L255.178,231.44L205.406,158.306L202.926,159.994ZM192.5,124.385C192.5,137.454 196.352,149.628 202.984,159.828L205.498,158.193C199.174,148.465 195.5,136.856 195.5,124.385L192.5,124.385ZM257.606,59.278C221.648,59.278 192.5,88.427 192.5,124.385L195.5,124.385C195.5,90.084 223.306,62.278 257.606,62.278L257.606,59.278ZM322.714,124.385C322.714,88.427 293.564,59.278 257.606,59.278L257.606,62.278C291.908,62.278 319.714,90.084 319.714,124.385L322.714,124.385ZM283.574,124.384C283.574,138.725 271.948,150.351 257.606,150.351L257.606,153.351C273.604,153.351 286.574,140.382 286.574,124.384L283.574,124.384ZM257.606,98.418C271.948,98.418 283.574,110.043 283.574,124.384L286.574,124.384C286.574,108.386 273.604,95.418 257.606,95.418L257.606,98.418ZM231.64,124.384C231.64,110.043 243.266,98.418 257.606,98.418L257.606,95.418C241.61,95.418 228.64,108.386 228.64,124.384L231.64,124.384ZM257.606,150.351C243.266,150.351 231.64,138.725 231.64,124.384L228.64,124.384C228.64,140.382 241.61,153.351 257.606,153.351L257.606,150.351ZM204.204,160.58C205.43,160.58 206.166,159.22 205.498,158.193L202.984,159.828C202.354,158.86 203.048,157.58 204.204,157.58L204.204,160.58ZM205.406,158.306C206.064,159.272 205.372,160.58 204.204,160.58L204.204,157.58C202.962,157.58 202.228,158.968 202.926,159.994L205.406,158.306ZM259.312,231.44C258.32,232.898 256.17,232.898 255.178,231.44L252.698,233.128C254.882,236.336 259.61,236.336 261.792,233.128L259.312,231.44Z" fill="#000000"/>
<path d="M321.214,124.385C321.214,140.425 315.276,155.078 305.48,166.266L260.552,232.284C258.964,234.616 255.526,234.616 253.938,232.284L204.166,159.15C204.146,159.12 204.168,159.08 204.204,159.08C204.238,159.08 204.26,159.04 204.24,159.01C197.763,149.047 194,137.155 194,124.385C194,89.256 222.478,60.778 257.606,60.778C292.736,60.778 321.214,89.256 321.214,124.385ZM257.606,151.851C272.776,151.851 285.074,139.554 285.074,124.384C285.074,109.215 272.776,96.918 257.606,96.918C242.438,96.918 230.14,109.215 230.14,124.384C230.14,139.554 242.438,151.851 257.606,151.851Z" clip-rule="evenodd" fill-rule="evenodd" fill="#FD97FF"/>
<path d="M305.48,166.266L304.352,165.278C304.312,165.324 304.274,165.372 304.24,165.422L305.48,166.266ZM306.61,167.254C316.636,155.803 322.714,140.802 322.714,124.385L319.714,124.385C319.714,140.047 313.918,154.353 304.352,165.278L306.61,167.254ZM261.792,233.128L306.72,167.11L304.24,165.422L259.312,231.44L261.792,233.128ZM202.926,159.994L252.698,233.128L255.178,231.44L205.406,158.306L202.926,159.994ZM192.5,124.385C192.5,137.454 196.352,149.628 202.984,159.828L205.498,158.193C199.174,148.465 195.5,136.856 195.5,124.385L192.5,124.385ZM257.606,59.278C221.648,59.278 192.5,88.427 192.5,124.385L195.5,124.385C195.5,90.084 223.306,62.278 257.606,62.278L257.606,59.278ZM322.714,124.385C322.714,88.427 293.564,59.278 257.606,59.278L257.606,62.278C291.908,62.278 319.714,90.084 319.714,124.385L322.714,124.385ZM283.574,124.384C283.574,138.725 271.948,150.351 257.606,150.351L257.606,153.351C273.604,153.351 286.574,140.382 286.574,124.384L283.574,124.384ZM257.606,98.418C271.948,98.418 283.574,110.043 283.574,124.384L286.574,124.384C286.574,108.386 273.604,95.418 257.606,95.418L257.606,98.418ZM231.64,124.384C231.64,110.043 243.266,98.418 257.606,98.418L257.606,95.418C241.61,95.418 228.64,108.386 228.64,124.384L231.64,124.384ZM257.606,150.351C243.266,150.351 231.64,138.725 231.64,124.384L228.64,124.384C228.64,140.382 241.61,153.351 257.606,153.351L257.606,150.351ZM204.204,160.58C205.43,160.58 206.166,159.22 205.498,158.193L202.984,159.828C202.354,158.86 203.048,157.58 204.204,157.58L204.204,160.58ZM205.406,158.306C206.064,159.272 205.372,160.58 204.204,160.58L204.204,157.58C202.962,157.58 202.228,158.968 202.926,159.994L205.406,158.306ZM259.312,231.44C258.32,232.898 256.17,232.898 255.178,231.44L252.698,233.128C254.882,236.336 259.61,236.336 261.792,233.128L259.312,231.44Z" fill="#000000"/>
<line x1="321.186" y1="125.278" x2="340.186" y2="125.278" stroke="#000000" stroke-width="1.5" stroke-miterlimit="3.999327" stroke-linejoin="round"/>
<line x1="278.186" y1="204.278" x2="297.186" y2="204.278" stroke="#000000" stroke-width="1.5" stroke-miterlimit="3.999327" stroke-linejoin="round"/>
<path d="M773.666,613.266C783.462,602.078 789.4,587.424 789.4,571.384C789.4,536.256 760.922,507.778 725.792,507.778C690.664,507.778 662.186,536.256 662.186,571.384C662.186,584.156 665.948,596.046 672.428,606.01C672.446,606.04 672.426,606.08 672.39,606.08C672.354,606.08 672.332,606.12 672.352,606.15L696.588,641.762L705.186,680.778L724.016,680.778C725.66,681.394 727.64,680.896 728.738,679.284L773.666,613.266ZM753.26,571.384C753.26,586.554 740.962,598.85 725.792,598.85C710.624,598.85 698.326,586.554 698.326,571.384C698.326,556.214 710.624,543.918 725.792,543.918C740.962,543.918 753.26,556.214 753.26,571.384Z" clip-rule="evenodd" fill-rule="evenodd" fill="#FC63FF"/>
<path d="M773.666,613.266L772.538,612.278C772.498,612.324 772.46,612.372 772.426,612.422L773.666,613.266ZM696.588,641.762L698.054,641.44C698.012,641.254 697.936,641.076 697.83,640.918L696.588,641.762ZM705.186,680.778L703.72,681.1C703.872,681.788 704.482,682.278 705.186,682.278L705.186,680.778ZM724.016,680.778L724.544,679.374C724.374,679.31 724.196,679.278 724.016,679.278L724.016,680.778ZM787.9,571.384C787.9,587.048 782.104,601.352 772.538,612.278L774.796,614.254C784.822,602.802 790.9,587.802 790.9,571.384L787.9,571.384ZM725.792,509.278C760.094,509.278 787.9,537.084 787.9,571.384L790.9,571.384C790.9,535.428 761.75,506.278 725.792,506.278L725.792,509.278ZM663.686,571.384C663.686,537.084 691.492,509.278 725.792,509.278L725.792,506.278C689.834,506.278 660.686,535.428 660.686,571.384L663.686,571.384ZM673.684,605.192C667.36,595.464 663.686,583.856 663.686,571.384L660.686,571.384C660.686,584.454 664.538,596.628 671.17,606.828L673.684,605.192ZM672.39,607.58C673.616,607.58 674.352,606.22 673.684,605.192L671.17,606.828C670.54,605.86 671.234,604.58 672.39,604.58L672.39,607.58ZM673.592,605.306C674.25,606.272 673.558,607.58 672.39,607.58L672.39,604.58C671.148,604.58 670.414,605.968 671.112,606.994L673.592,605.306ZM697.83,640.918L673.592,605.306L671.112,606.994L695.348,642.606L697.83,640.918ZM706.65,680.456L698.054,641.44L695.124,642.086L703.72,681.1L706.65,680.456ZM724.016,679.278L705.186,679.278L705.186,682.278L724.016,682.278L724.016,679.278ZM727.498,678.44C726.816,679.442 725.582,679.764 724.544,679.374L723.49,682.182C725.736,683.024 728.466,682.35 729.978,680.128L727.498,678.44ZM772.426,612.422L727.498,678.44L729.978,680.128L774.906,614.11L772.426,612.422ZM725.792,600.35C741.79,600.35 754.76,587.382 754.76,571.384L751.76,571.384C751.76,585.726 740.134,597.35 725.792,597.35L725.792,600.35ZM696.826,571.384C696.826,587.382 709.796,600.35 725.792,600.35L725.792,597.35C711.452,597.35 699.826,585.726 699.826,571.384L696.826,571.384ZM725.792,542.418C709.796,542.418 696.826,555.386 696.826,571.384L699.826,571.384C699.826,557.044 711.452,545.418 725.792,545.418L725.792,542.418ZM754.76,571.384C754.76,555.386 741.79,542.418 725.792,542.418L725.792,545.418C740.134,545.418 751.76,557.044 751.76,571.384L754.76,571.384Z" fill="#000000"/>
<path d="M769.4,571.384C769.4,587.424 763.462,602.078 753.666,613.266L708.738,679.284C707.15,681.616 703.712,681.616 702.124,679.284L652.352,606.15C652.332,606.12 652.354,606.08 652.39,606.08C652.426,606.08 652.446,606.04 652.428,606.01C645.948,596.046 642.186,584.156 642.186,571.384C642.186,536.256 670.664,507.778 705.792,507.778C740.922,507.778 769.4,536.256 769.4,571.384ZM705.792,598.85C720.962,598.85 733.26,586.554 733.26,571.384C733.26,556.214 720.962,543.918 705.792,543.918C690.624,543.918 678.326,556.214 678.326,571.384C678.326,586.554 690.624,598.85 705.792,598.85Z" clip-rule="evenodd" fill-rule="evenodd" fill="#FC63FF"/>
<path d="M753.666,613.266L752.538,612.278C752.498,612.324 752.46,612.372 752.426,612.422L753.666,613.266ZM754.796,614.254C764.822,602.802 770.9,587.802 770.9,571.384L767.9,571.384C767.9,587.048 762.104,601.352 752.538,612.278L754.796,614.254ZM709.978,680.128L754.906,614.11L752.426,612.422L707.498,678.44L709.978,680.128ZM651.112,606.994L700.884,680.128L703.364,678.44L653.592,605.306L651.112,606.994ZM640.686,571.384C640.686,584.454 644.538,596.628 651.17,606.828L653.684,605.192C647.36,595.464 643.686,583.856 643.686,571.384L640.686,571.384ZM705.792,506.278C669.834,506.278 640.686,535.428 640.686,571.384L643.686,571.384C643.686,537.084 671.492,509.278 705.792,509.278L705.792,506.278ZM770.9,571.384C770.9,535.428 741.75,506.278 705.792,506.278L705.792,509.278C740.094,509.278 767.9,537.084 767.9,571.384L770.9,571.384ZM731.76,571.384C731.76,585.726 720.134,597.35 705.792,597.35L705.792,600.35C721.79,600.35 734.76,587.382 734.76,571.384L731.76,571.384ZM705.792,545.418C720.134,545.418 731.76,557.044 731.76,571.384L734.76,571.384C734.76,555.386 721.79,542.418 705.792,542.418L705.792,545.418ZM679.826,571.384C679.826,557.044 691.452,545.418 705.792,545.418L705.792,542.418C689.796,542.418 676.826,555.386 676.826,571.384L679.826,571.384ZM705.792,597.35C691.452,597.35 679.826,585.726 679.826,571.384L676.826,571.384C676.826,587.382 689.796,600.35 705.792,600.35L705.792,597.35ZM652.39,607.58C653.616,607.58 654.352,606.22 653.684,605.192L651.17,606.828C650.54,605.86 651.234,604.58 652.39,604.58L652.39,607.58ZM653.592,605.306C654.25,606.272 653.558,607.58 652.39,607.58L652.39,604.58C651.148,604.58 650.414,605.968 651.112,606.994L653.592,605.306ZM707.498,678.44C706.506,679.898 704.356,679.898 703.364,678.44L700.884,680.128C703.068,683.336 707.796,683.336 709.978,680.128L707.498,678.44Z" fill="#000000"/>
<path d="M769.4,571.384C769.4,587.424 763.462,602.078 753.666,613.266L708.738,679.284C707.15,681.616 703.712,681.616 702.124,679.284L652.352,606.15C652.332,606.12 652.354,606.08 652.39,606.08C652.426,606.08 652.446,606.04 652.428,606.01C645.948,596.046 642.186,584.156 642.186,571.384C642.186,536.256 670.664,507.778 705.792,507.778C740.922,507.778 769.4,536.256 769.4,571.384ZM705.792,598.85C720.962,598.85 733.26,586.554 733.26,571.384C733.26,556.214 720.962,543.918 705.792,543.918C690.624,543.918 678.326,556.214 678.326,571.384C678.326,586.554 690.624,598.85 705.792,598.85Z" clip-rule="evenodd" fill-rule="evenodd" fill="#FD97FF"/>
<path d="M753.666,613.266L752.538,612.278C752.498,612.324 752.46,612.372 752.426,612.422L753.666,613.266ZM754.796,614.254C764.822,602.802 770.9,587.802 770.9,571.384L767.9,571.384C767.9,587.048 762.104,601.352 752.538,612.278L754.796,614.254ZM709.978,680.128L754.906,614.11L752.426,612.422L707.498,678.44L709.978,680.128ZM651.112,606.994L700.884,680.128L703.364,678.44L653.592,605.306L651.112,606.994ZM640.686,571.384C640.686,584.454 644.538,596.628 651.17,606.828L653.684,605.192C647.36,595.464 643.686,583.856 643.686,571.384L640.686,571.384ZM705.792,506.278C669.834,506.278 640.686,535.428 640.686,571.384L643.686,571.384C643.686,537.084 671.492,509.278 705.792,509.278L705.792,506.278ZM770.9,571.384C770.9,535.428 741.75,506.278 705.792,506.278L705.792,509.278C740.094,509.278 767.9,537.084 767.9,571.384L770.9,571.384ZM731.76,571.384C731.76,585.726 720.134,597.35 705.792,597.35L705.792,600.35C721.79,600.35 734.76,587.382 734.76,571.384L731.76,571.384ZM705.792,545.418C720.134,545.418 731.76,557.044 731.76,571.384L734.76,571.384C734.76,555.386 721.79,542.418 705.792,542.418L705.792,545.418ZM679.826,571.384C679.826,557.044 691.452,545.418 705.792,545.418L705.792,542.418C689.796,542.418 676.826,555.386 676.826,571.384L679.826,571.384ZM705.792,597.35C691.452,597.35 679.826,585.726 679.826,571.384L676.826,571.384C676.826,587.382 689.796,600.35 705.792,600.35L705.792,597.35ZM652.39,607.58C653.616,607.58 654.352,606.22 653.684,605.192L651.17,606.828C650.54,605.86 651.234,604.58 652.39,604.58L652.39,607.58ZM653.592,605.306C654.25,606.272 653.558,607.58 652.39,607.58L652.39,604.58C651.148,604.58 650.414,605.968 651.112,606.994L653.592,605.306ZM707.498,678.44C706.506,679.898 704.356,679.898 703.364,678.44L700.884,680.128C703.068,683.336 707.796,683.336 709.978,680.128L707.498,678.44Z" fill="#000000"/>
<line x1="769.372" y1="572.278" x2="788.372" y2="572.278" stroke="#000000" stroke-width="1.5" stroke-miterlimit="3.999327" stroke-linejoin="round"/>
<line x1="726.372" y1="651.278" x2="745.372" y2="651.278" stroke="#000000" stroke-width="1.5" stroke-miterlimit="3.999327" stroke-linejoin="round"/>
<path d="M461.718,455.998C469.076,447.596 473.534,436.592 473.534,424.546C473.534,398.164 452.148,376.778 425.768,376.778C399.386,376.778 378,398.164 378,424.546C378,434.136 380.826,443.066 385.69,450.548C385.706,450.57 385.69,450.6 385.662,450.6C385.636,450.6 385.62,450.63 385.634,450.654L394.98,464.384L404,506.778L425,506.778L425.356,506.112C426.658,506.158 427.98,505.576 428.802,504.366L461.718,455.998ZM446.394,424.544C446.394,435.936 437.16,445.172 425.768,445.172C414.376,445.172 405.14,435.936 405.14,424.544C405.14,413.152 414.376,403.918 425.768,403.918C437.16,403.918 446.394,413.152 446.394,424.544Z" clip-rule="evenodd" fill-rule="evenodd" fill="#FC63FF"/>
<path d="M461.718,455.998L460.59,455.01C460.55,455.056 460.512,455.104 460.478,455.154L461.718,455.998ZM394.98,464.384L396.446,464.072C396.406,463.882 396.33,463.702 396.22,463.54L394.98,464.384ZM404,506.778L402.532,507.09C402.68,507.782 403.292,508.278 404,508.278L404,506.778ZM425,506.778L425,508.278C425.552,508.278 426.062,507.974 426.322,507.484L425,506.778ZM425.356,506.112L425.408,504.614C424.836,504.594 424.302,504.9 424.032,505.406L425.356,506.112ZM472.034,424.546C472.034,436.214 467.718,446.87 460.59,455.01L462.848,456.986C470.434,448.32 475.034,436.968 475.034,424.546L472.034,424.546ZM425.768,378.278C451.32,378.278 472.034,398.992 472.034,424.546L475.034,424.546C475.034,397.336 452.976,375.278 425.768,375.278L425.768,378.278ZM379.5,424.546C379.5,398.992 400.214,378.278 425.768,378.278L425.768,375.278C398.558,375.278 376.5,397.336 376.5,424.546L379.5,424.546ZM386.948,449.73C382.236,442.484 379.5,433.836 379.5,424.546L376.5,424.546C376.5,434.434 379.414,443.648 384.434,451.366L386.948,449.73ZM385.662,452.1C386.88,452.1 387.612,450.75 386.948,449.73L384.434,451.366C383.798,450.39 384.498,449.1 385.662,449.1L385.662,452.1ZM386.874,449.81C387.538,450.782 386.84,452.1 385.662,452.1L385.662,449.1C384.43,449.1 383.702,450.478 384.394,451.498L386.874,449.81ZM396.22,463.54L386.874,449.81L384.394,451.498L393.74,465.228L396.22,463.54ZM405.466,506.466L396.446,464.072L393.512,464.696L402.532,507.09L405.466,506.466ZM425,505.278L404,505.278L404,508.278L425,508.278L425,505.278ZM424.032,505.406L423.676,506.07L426.322,507.484L426.678,506.82L424.032,505.406ZM427.562,503.522C427.048,504.278 426.23,504.642 425.408,504.614L425.304,507.612C427.086,507.674 428.91,506.872 430.042,505.21L427.562,503.522ZM460.478,455.154L427.562,503.522L430.042,505.21L462.958,456.842L460.478,455.154ZM425.768,446.672C437.988,446.672 447.894,436.766 447.894,424.544L444.894,424.544C444.894,435.108 436.33,443.672 425.768,443.672L425.768,446.672ZM403.64,424.544C403.64,436.766 413.546,446.672 425.768,446.672L425.768,443.672C415.204,443.672 406.64,435.108 406.64,424.544L403.64,424.544ZM425.768,402.418C413.546,402.418 403.64,412.324 403.64,424.544L406.64,424.544C406.64,413.982 415.204,405.418 425.768,405.418L425.768,402.418ZM447.894,424.544C447.894,412.324 437.988,402.418 425.768,402.418L425.768,405.418C436.33,405.418 444.894,413.982 444.894,424.544L447.894,424.544Z" fill="#000000"/>
<line x1="455.186" y1="424.278" x2="474.186" y2="424.278" stroke="#000000" stroke-width="1.5" stroke-miterlimit="3.999327" stroke-linejoin="round"/>
<line x1="420.186" y1="486.278" x2="439.186" y2="486.278" stroke="#000000" stroke-width="1.5" stroke-miterlimit="3.999327" stroke-linejoin="round"/>
<path d="M453.534,424.546C453.534,436.592 449.076,447.596 441.718,455.998L408.802,504.366C407.214,506.698 403.776,506.698 402.188,504.366L365.634,450.654C365.62,450.63 365.636,450.6 365.662,450.6C365.69,450.6 365.706,450.57 365.69,450.548C360.826,443.066 358,434.136 358,424.546C358,398.164 379.386,376.778 405.768,376.778C432.148,376.778 453.534,398.164 453.534,424.546ZM405.768,445.172C417.16,445.172 426.394,435.936 426.394,424.544C426.394,413.152 417.16,403.918 405.768,403.918C394.376,403.918 385.14,413.152 385.14,424.544C385.14,435.936 394.376,445.172 405.768,445.172Z" clip-rule="evenodd" fill-rule="evenodd" fill="#FD97FF"/>
<path d="M441.718,455.998L440.59,455.01C440.55,455.056 440.512,455.104 440.478,455.154L441.718,455.998ZM442.848,456.986C450.434,448.32 455.034,436.968 455.034,424.546L452.034,424.546C452.034,436.214 447.718,446.87 440.59,455.01L442.848,456.986ZM410.042,505.21L442.958,456.842L440.478,455.154L407.562,503.522L410.042,505.21ZM364.394,451.498L400.948,505.21L403.428,503.522L366.874,449.81L364.394,451.498ZM356.5,424.546C356.5,434.434 359.414,443.648 364.434,451.366L366.948,449.73C362.236,442.484 359.5,433.836 359.5,424.546L356.5,424.546ZM405.768,375.278C378.558,375.278 356.5,397.336 356.5,424.546L359.5,424.546C359.5,398.992 380.214,378.278 405.768,378.278L405.768,375.278ZM455.034,424.546C455.034,397.336 432.976,375.278 405.768,375.278L405.768,378.278C431.32,378.278 452.034,398.992 452.034,424.546L455.034,424.546ZM424.894,424.544C424.894,435.108 416.33,443.672 405.768,443.672L405.768,446.672C417.988,446.672 427.894,436.766 427.894,424.544L424.894,424.544ZM405.768,405.418C416.33,405.418 424.894,413.982 424.894,424.544L427.894,424.544C427.894,412.324 417.988,402.418 405.768,402.418L405.768,405.418ZM386.64,424.544C386.64,413.982 395.204,405.418 405.768,405.418L405.768,402.418C393.546,402.418 383.64,412.324 383.64,424.544L386.64,424.544ZM405.768,443.672C395.204,443.672 386.64,435.108 386.64,424.544L383.64,424.544C383.64,436.766 393.546,446.672 405.768,446.672L405.768,443.672ZM365.662,452.1C366.88,452.1 367.612,450.75 366.948,449.73L364.434,451.366C363.798,450.39 364.498,449.1 365.662,449.1L365.662,452.1ZM366.874,449.81C367.538,450.782 366.84,452.1 365.662,452.1L365.662,449.1C364.43,449.1 363.702,450.478 364.394,451.498L366.874,449.81ZM407.562,503.522C406.57,504.98 404.42,504.98 403.428,503.522L400.948,505.21C403.132,508.416 407.86,508.416 410.042,505.21L407.562,503.522Z" fill="#000000"/>
<path d="M851.904,318.998C859.262,310.596 863.72,299.592 863.72,287.546C863.72,261.164 842.334,239.778 815.954,239.778C789.572,239.778 768.186,261.164 768.186,287.546C768.186,297.136 771.012,306.066 775.876,313.548C775.892,313.57 775.876,313.6 775.848,313.6C775.822,313.6 775.806,313.63 775.82,313.654L785.166,327.384L794.186,369.778L815.186,369.778L815.542,369.112C816.844,369.158 818.166,368.576 818.988,367.366L851.904,318.998ZM836.58,287.544C836.58,298.936 827.346,308.172 815.954,308.172C804.562,308.172 795.326,298.936 795.326,287.544C795.326,276.152 804.562,266.918 815.954,266.918C827.346,266.918 836.58,276.152 836.58,287.544Z" clip-rule="evenodd" fill-rule="evenodd" fill="#FC63FF"/>
<path d="M851.904,318.998L850.776,318.01C850.736,318.056 850.698,318.104 850.664,318.154L851.904,318.998ZM785.166,327.384L786.632,327.072C786.592,326.882 786.516,326.702 786.406,326.54L785.166,327.384ZM794.186,369.778L792.718,370.09C792.866,370.782 793.478,371.278 794.186,371.278L794.186,369.778ZM815.186,369.778L815.186,371.278C815.74,371.278 816.248,370.974 816.508,370.484L815.186,369.778ZM815.542,369.112L815.594,367.614C815.022,367.594 814.488,367.9 814.218,368.406L815.542,369.112ZM862.22,287.546C862.22,299.214 857.904,309.87 850.776,318.01L853.034,319.986C860.62,311.32 865.22,299.968 865.22,287.546L862.22,287.546ZM815.954,241.278C841.506,241.278 862.22,261.992 862.22,287.546L865.22,287.546C865.22,260.336 843.162,238.278 815.954,238.278L815.954,241.278ZM769.686,287.546C769.686,261.992 790.4,241.278 815.954,241.278L815.954,238.278C788.744,238.278 766.686,260.336 766.686,287.546L769.686,287.546ZM777.134,312.73C772.422,305.484 769.686,296.836 769.686,287.546L766.686,287.546C766.686,297.434 769.6,306.648 774.62,314.366L777.134,312.73ZM775.848,315.1C777.066,315.1 777.798,313.75 777.134,312.73L774.62,314.366C773.984,313.39 774.684,312.1 775.848,312.1L775.848,315.1ZM777.06,312.81C777.724,313.782 777.026,315.1 775.848,315.1L775.848,312.1C774.616,312.1 773.888,313.478 774.58,314.498L777.06,312.81ZM786.406,326.54L777.06,312.81L774.58,314.498L783.926,328.228L786.406,326.54ZM795.652,369.466L786.632,327.072L783.698,327.696L792.718,370.09L795.652,369.466ZM815.186,368.278L794.186,368.278L794.186,371.278L815.186,371.278L815.186,368.278ZM814.218,368.406L813.862,369.07L816.508,370.484L816.864,369.82L814.218,368.406ZM817.748,366.522C817.234,367.278 816.416,367.642 815.594,367.614L815.49,370.612C817.272,370.674 819.096,369.872 820.228,368.21L817.748,366.522ZM850.664,318.154L817.748,366.522L820.228,368.21L853.144,319.842L850.664,318.154ZM815.954,309.672C828.174,309.672 838.08,299.766 838.08,287.544L835.08,287.544C835.08,298.108 826.516,306.672 815.954,306.672L815.954,309.672ZM793.826,287.544C793.826,299.766 803.732,309.672 815.954,309.672L815.954,306.672C805.39,306.672 796.826,298.108 796.826,287.544L793.826,287.544ZM815.954,265.418C803.732,265.418 793.826,275.324 793.826,287.544L796.826,287.544C796.826,276.982 805.39,268.418 815.954,268.418L815.954,265.418ZM838.08,287.544C838.08,275.324 828.174,265.418 815.954,265.418L815.954,268.418C826.516,268.418 835.08,276.982 835.08,287.544L838.08,287.544Z" fill="#000000"/>
<line x1="845.372" y1="287.278" x2="864.372" y2="287.278" stroke="#000000" stroke-width="1.5" stroke-miterlimit="3.999327" stroke-linejoin="round"/>
<line x1="810.372" y1="349.278" x2="829.372" y2="349.278" stroke="#000000" stroke-width="1.5" stroke-miterlimit="3.999327" stroke-linejoin="round"/>
<path d="M843.72,287.546C843.72,299.592 839.262,310.596 831.904,318.998L798.988,367.366C797.4,369.698 793.962,369.698 792.374,367.366L755.82,313.654C755.806,313.63 755.822,313.6 755.848,313.6C755.876,313.6 755.892,313.57 755.876,313.548C751.012,306.066 748.186,297.136 748.186,287.546C748.186,261.164 769.572,239.778 795.954,239.778C822.334,239.778 843.72,261.164 843.72,287.546ZM795.954,308.172C807.346,308.172 816.58,298.936 816.58,287.544C816.58,276.152 807.346,266.918 795.954,266.918C784.562,266.918 775.326,276.152 775.326,287.544C775.326,298.936 784.562,308.172 795.954,308.172Z" clip-rule="evenodd" fill-rule="evenodd" fill="#FD97FF"/>
<path d="M831.904,318.998L830.776,318.01C830.736,318.056 830.698,318.104 830.664,318.154L831.904,318.998ZM833.034,319.986C840.62,311.32 845.22,299.968 845.22,287.546L842.22,287.546C842.22,299.214 837.904,309.87 830.776,318.01L833.034,319.986ZM800.228,368.21L833.144,319.842L830.664,318.154L797.748,366.522L800.228,368.21ZM754.58,314.498L791.134,368.21L793.614,366.522L757.06,312.81L754.58,314.498ZM746.686,287.546C746.686,297.434 749.6,306.648 754.62,314.366L757.134,312.73C752.422,305.484 749.686,296.836 749.686,287.546L746.686,287.546ZM795.954,238.278C768.744,238.278 746.686,260.336 746.686,287.546L749.686,287.546C749.686,261.992 770.4,241.278 795.954,241.278L795.954,238.278ZM845.22,287.546C845.22,260.336 823.162,238.278 795.954,238.278L795.954,241.278C821.506,241.278 842.22,261.992 842.22,287.546L845.22,287.546ZM815.08,287.544C815.08,298.108 806.516,306.672 795.954,306.672L795.954,309.672C808.174,309.672 818.08,299.766 818.08,287.544L815.08,287.544ZM795.954,268.418C806.516,268.418 815.08,276.982 815.08,287.544L818.08,287.544C818.08,275.324 808.174,265.418 795.954,265.418L795.954,268.418ZM776.826,287.544C776.826,276.982 785.39,268.418 795.954,268.418L795.954,265.418C783.732,265.418 773.826,275.324 773.826,287.544L776.826,287.544ZM795.954,306.672C785.39,306.672 776.826,298.108 776.826,287.544L773.826,287.544C773.826,299.766 783.732,309.672 795.954,309.672L795.954,306.672ZM755.848,315.1C757.066,315.1 757.798,313.75 757.134,312.73L754.62,314.366C753.984,313.39 754.684,312.1 755.848,312.1L755.848,315.1ZM757.06,312.81C757.724,313.782 757.026,315.1 755.848,315.1L755.848,312.1C754.616,312.1 753.888,313.478 754.58,314.498L757.06,312.81ZM797.748,366.522C796.756,367.98 794.606,367.98 793.614,366.522L791.134,368.21C793.318,371.416 798.046,371.416 800.228,368.21L797.748,366.522Z" fill="#000000"/>
</g>
</svg>
